<svg id="Camada_1" data-name="Camada 1" xmlns="http://www.w3.org/2000/svg" viewBox="0 0 1366 768"><defs><style>.cls-1{fill:#fffff4;}.cls-2{fill:#1b1a1a;}.cls-3{fill:#ff8f1c;}</style></defs><rect class="cls-1" width="1366" height="768"/><rect class="cls-2" width="1366" height="32"/><path class="cls-2" d="M0,132.23s67,43.83,46.74-21.85c0,0,55.58,6.31,29.06-26.53,0,0,55.58,21.47,56.84-7.58,0,0,40.43,17.68,35.37-18.95,0,0,54.59,10.1,25.4-30.32H0Z"/><path class="cls-2" d="M1140.2,26c-3.88,23.72,49.8,47.43,66,23.72,0,0-44.93,47.43,22.47,51.17,0,0,1.25,77.4,38.7,28.71,0,0,33.7,57.42,57.42,0,0,0-11.24,52,41.19,17.91V26Z"/><path class="cls-2" d="M306.87,27S337,83,386,39c0,0,1,74,29,31,0,0,40,35,52,2,0,0,65,5,37-20,0,0,38,7,25-25Z"/><path class="cls-2" d="M844,31s26.72,48,41.36,0c0,0,4.64,29,23.64,13,0,0,27,76,34,28,0,0,14-15,4-29,0,0,27,7,17.51-12Z"/><rect class="cls-3" y="658" width="1366" height="110"/><path class="cls-3" d="M225.8,663c3.88-23.72-49.8-47.43-66-23.72,0,0,44.93-47.43-22.47-51.17,0,0-1.25-77.4-38.7-28.71,0,0-33.7-57.42-57.42,0,0,0,11.24-52-41.19-17.91V663Z"/><path class="cls-3" d="M991.49,665s-30.13-56-79.13-12c0,0-1-74-29-31,0,0-40-35-52-2,0,0-65-5-37,20,0,0-38-7-25,25Z"/><path class="cls-3" d="M1105.19,658s18.66-40.17,71.24-22.58c0,0,23.57-65.42,52.57-11.42,0,0,22-30,45-10,0,0-13-46,29-31,0,0,17.87-43,41.94-3,0,0,21.06-6,21.06,8v73.53H1105.19Z"/></svg>