<svg id="visual" viewBox="0 0 960 540" width="960" height="540" xmlns="http://www.w3.org/2000/svg" xmlns:xlink="http://www.w3.org/1999/xlink" version="1.1"><rect x="0" y="0" width="960" height="540" fill="#242424"></rect><path d="M0 333L56 315L113 304L169 309L226 329L282 323L339 299L395 304L452 309L508 289L565 296L621 314L678 311L734 313L791 320L847 302L904 304L960 296L960 541L904 541L847 541L791 541L734 541L678 541L621 541L565 541L508 541L452 541L395 541L339 541L282 541L226 541L169 541L113 541L56 541L0 541Z" fill="#ff8f1c"></path><path d="M0 337L56 363L113 368L169 334L226 344L282 334L339 340L395 340L452 336L508 353L565 368L621 366L678 322L734 369L791 356L847 343L904 366L960 357L960 541L904 541L847 541L791 541L734 541L678 541L621 541L565 541L508 541L452 541L395 541L339 541L282 541L226 541L169 541L113 541L56 541L0 541Z" fill="#db7e15"></path><path d="M0 387L56 401L113 376L169 401L226 369L282 366L339 386L395 380L452 399L508 403L565 379L621 401L678 399L734 399L791 391L847 388L904 371L960 373L960 541L904 541L847 541L791 541L734 541L678 541L621 541L565 541L508 541L452 541L395 541L339 541L282 541L226 541L169 541L113 541L56 541L0 541Z" fill="#b96d10"></path><path d="M0 405L56 401L113 402L169 414L226 416L282 422L339 407L395 434L452 426L508 417L565 411L621 411L678 414L734 430L791 421L847 423L904 420L960 430L960 541L904 541L847 541L791 541L734 541L678 541L621 541L565 541L508 541L452 541L395 541L339 541L282 541L226 541L169 541L113 541L56 541L0 541Z" fill="#995d0c"></path><path d="M0 450L56 457L113 440L169 461L226 466L282 447L339 466L395 463L452 457L508 452L565 472L621 464L678 445L734 468L791 456L847 452L904 443L960 458L960 541L904 541L847 541L791 541L734 541L678 541L621 541L565 541L508 541L452 541L395 541L339 541L282 541L226 541L169 541L113 541L56 541L0 541Z" fill="#7a4c0a"></path><path d="M0 505L56 498L113 501L169 479L226 496L282 483L339 481L395 493L452 489L508 489L565 495L621 480L678 489L734 485L791 487L847 488L904 498L960 496L960 541L904 541L847 541L791 541L734 541L678 541L621 541L565 541L508 541L452 541L395 541L339 541L282 541L226 541L169 541L113 541L56 541L0 541Z" fill="#5d3b08"></path></svg>