<?xml version="1.0" encoding="utf-8"?>
<!-- Generator: Adobe Illustrator 25.3.0, SVG Export Plug-In . SVG Version: 6.00 Build 0)  -->
<svg version="1.1" id="Camada_2" xmlns="http://www.w3.org/2000/svg" xmlns:xlink="http://www.w3.org/1999/xlink" x="0px" y="0px"
	 viewBox="0 0 228.44 401.31" style="enable-background:new 0 0 228.44 401.31;" xml:space="preserve">
<style type="text/css">
	.st0{fill:url(#SVGID_1_);}
</style>
<linearGradient id="SVGID_1_" gradientUnits="userSpaceOnUse" x1="114.2198" y1="0" x2="114.2198" y2="401.3128">
	<stop  offset="0" style="stop-color:#FF8F1C"/>
	<stop  offset="2.226710e-03" style="stop-color:#FF8F1C"/>
	<stop  offset="1" style="stop-color:#FF8F1C"/>
</linearGradient>
<path class="st0" d="M0,0v401.31h65.42c-0.76-0.35-1.51-0.71-2.23-1.08c-19.67-10.29-27.21-31.33-26.07-70.66
	c6.4-69.97,45.73-97.18,45.73-97.18s9.83-12.12,51.29-12.12c33.68,6.86,25.32,40.02,25.32,40.02s-12.54,15.92-23.08,7.84
	c-0.76-0.58-1.5-1.28-2.23-2.13c5.1-28.13-31.85-21.72-38.25-17.61c-6.4,4.12-20.58,18.06-28.81,47.11
	c-8.23,29.04-3.43,54.65-3.43,54.65s4.8,38.19,47.11,34.3s78.4-54.88,80.72-56.77c16.38-5.06,14.49,10.03,14.49,10.03
	c-21.7,35.11-45.97,54.31-68.88,63.59h91.36V0H0z"/>
</svg>
