<svg id="visual" viewBox="0 0 900 600" width="900" height="600" xmlns="http://www.w3.org/2000/svg" xmlns:xlink="http://www.w3.org/1999/xlink" version="1.1"><g stroke-width="1" stroke-linejoin="bevel"><path d="M463 328.9L500 299.9L467 248.1Z" fill="#242424" stroke="#242424"></path><path d="M500 299.9L494 214.1L467 248.1Z" fill="#222222" stroke="#222222"></path><path d="M494 214.1L478 203.4L467 248.1Z" fill="#212121" stroke="#212121"></path><path d="M478 203.4L361 257.1L467 248.1Z" fill="#212121" stroke="#212121"></path><path d="M467 248.1L361 257.1L463 328.9Z" fill="#222222" stroke="#222222"></path><path d="M337 307.9L464 399.6L463 328.9Z" fill="#222222" stroke="#222222"></path><path d="M463 328.9L512 408.6L500 299.9Z" fill="#212121" stroke="#212121"></path><path d="M361 257.1L337 307.9L463 328.9Z" fill="#202020" stroke="#202020"></path><path d="M464 399.6L512 408.6L463 328.9Z" fill="#232323" stroke="#232323"></path><path d="M562 112.7L499 140.4L494 214.1Z" fill="#222222" stroke="#222222"></path><path d="M643 302.1L494 214.1L500 299.9Z" fill="#242424" stroke="#242424"></path><path d="M494 214.1L499 140.4L478 203.4Z" fill="#232323" stroke="#232323"></path><path d="M478 203.4L361 159.4L361 257.1Z" fill="#222222" stroke="#222222"></path><path d="M434 100.7L361 159.4L478 203.4Z" fill="#242424" stroke="#242424"></path><path d="M241 286.1L252 320.9L337 307.9Z" fill="#212121" stroke="#212121"></path><path d="M337 307.9L403 451.6L464 399.6Z" fill="#212121" stroke="#212121"></path><path d="M464 399.6L403 451.6L512 408.6Z" fill="#232323" stroke="#232323"></path><path d="M512 408.6L643 302.1L500 299.9Z" fill="#212121" stroke="#212121"></path><path d="M499 140.4L434 100.7L478 203.4Z" fill="#232323" stroke="#232323"></path><path d="M635 168.4L562 112.7L494 214.1Z" fill="#222222" stroke="#222222"></path><path d="M499 140.4L537 0L434 100.7Z" fill="#242424" stroke="#242424"></path><path d="M677 344.9L664 305.9L643 302.1Z" fill="#222222" stroke="#222222"></path><path d="M643 302.1L635 168.4L494 214.1Z" fill="#232323" stroke="#232323"></path><path d="M677 210.4L635 168.4L643 302.1Z" fill="#242424" stroke="#242424"></path><path d="M241 286.1L337 307.9L361 257.1Z" fill="#232323" stroke="#232323"></path><path d="M337 307.9L258 470.6L403 451.6Z" fill="#242424" stroke="#242424"></path><path d="M290 148.4L241 286.1L361 257.1Z" fill="#202020" stroke="#202020"></path><path d="M374 56.7L290 148.4L361 159.4Z" fill="#222222" stroke="#222222"></path><path d="M361 159.4L290 148.4L361 257.1Z" fill="#222222" stroke="#222222"></path><path d="M512 408.6L677 344.9L643 302.1Z" fill="#232323" stroke="#232323"></path><path d="M664 305.9L677 210.4L643 302.1Z" fill="#242424" stroke="#242424"></path><path d="M644 459.6L677 344.9L512 408.6Z" fill="#212121" stroke="#212121"></path><path d="M754 281.1L677 210.4L664 305.9Z" fill="#242424" stroke="#242424"></path><path d="M241 286.1L221 296.1L252 320.9Z" fill="#232323" stroke="#232323"></path><path d="M387 559.3L458 548.3L403 451.6Z" fill="#212121" stroke="#212121"></path><path d="M170 154.4L221 296.1L241 286.1Z" fill="#212121" stroke="#212121"></path><path d="M673 0L605 92.7L762 81.7Z" fill="#222222" stroke="#222222"></path><path d="M635 168.4L605 92.7L562 112.7Z" fill="#232323" stroke="#232323"></path><path d="M537 0L405 0L434 100.7Z" fill="#202020" stroke="#202020"></path><path d="M434 100.7L374 56.7L361 159.4Z" fill="#212121" stroke="#212121"></path><path d="M405 0L374 56.7L434 100.7Z" fill="#202020" stroke="#202020"></path><path d="M597 501.3L644 459.6L512 408.6Z" fill="#222222" stroke="#222222"></path><path d="M497 554.3L597 501.3L512 408.6Z" fill="#242424" stroke="#242424"></path><path d="M258 470.6L337 307.9L252 320.9Z" fill="#202020" stroke="#202020"></path><path d="M403 451.6L458 548.3L512 408.6Z" fill="#212121" stroke="#212121"></path><path d="M458 548.3L497 554.3L512 408.6Z" fill="#212121" stroke="#212121"></path><path d="M234 473.3L258 470.6L162 387.6Z" fill="#222222" stroke="#222222"></path><path d="M258 470.6L387 559.3L403 451.6Z" fill="#232323" stroke="#232323"></path><path d="M458 548.3L424 600L497 554.3Z" fill="#212121" stroke="#212121"></path><path d="M162 387.6L258 470.6L252 320.9Z" fill="#242424" stroke="#242424"></path><path d="M258 470.6L297 600L387 559.3Z" fill="#222222" stroke="#222222"></path><path d="M677 344.9L754 281.1L664 305.9Z" fill="#202020" stroke="#202020"></path><path d="M673 0L601 0L605 92.7Z" fill="#232323" stroke="#232323"></path><path d="M818 392.6L754 281.1L677 344.9Z" fill="#212121" stroke="#212121"></path><path d="M537 0L499 140.4L562 112.7Z" fill="#232323" stroke="#232323"></path><path d="M374 56.7L236 90.7L290 148.4Z" fill="#212121" stroke="#212121"></path><path d="M676 534.3L715 441.6L644 459.6Z" fill="#222222" stroke="#222222"></path><path d="M644 459.6L715 441.6L677 344.9Z" fill="#212121" stroke="#212121"></path><path d="M676 534.3L644 459.6L597 501.3Z" fill="#222222" stroke="#222222"></path><path d="M601 0L537 0L605 92.7Z" fill="#242424" stroke="#242424"></path><path d="M605 92.7L537 0L562 112.7Z" fill="#202020" stroke="#202020"></path><path d="M310 0L236 90.7L374 56.7Z" fill="#232323" stroke="#232323"></path><path d="M290 148.4L170 154.4L241 286.1Z" fill="#222222" stroke="#222222"></path><path d="M405 0L376 0L374 56.7Z" fill="#232323" stroke="#232323"></path><path d="M387 559.3L424 600L458 548.3Z" fill="#242424" stroke="#242424"></path><path d="M497 554.3L522 600L597 501.3Z" fill="#232323" stroke="#232323"></path><path d="M401 600L424 600L387 559.3Z" fill="#232323" stroke="#232323"></path><path d="M145 382.9L162 387.6L221 296.1Z" fill="#242424" stroke="#242424"></path><path d="M221 296.1L162 387.6L252 320.9Z" fill="#232323" stroke="#232323"></path><path d="M297 600L401 600L387 559.3Z" fill="#222222" stroke="#222222"></path><path d="M424 600L522 600L497 554.3Z" fill="#212121" stroke="#212121"></path><path d="M236 90.7L170 154.4L290 148.4Z" fill="#202020" stroke="#202020"></path><path d="M771 181.4L635 168.4L677 210.4Z" fill="#232323" stroke="#232323"></path><path d="M162 387.6L202 482.3L234 473.3Z" fill="#222222" stroke="#222222"></path><path d="M234 473.3L297 600L258 470.6Z" fill="#232323" stroke="#232323"></path><path d="M376 0L310 0L374 56.7Z" fill="#212121" stroke="#212121"></path><path d="M236 90.7L166 103.7L170 154.4Z" fill="#232323" stroke="#232323"></path><path d="M658 600L676 534.3L597 501.3Z" fill="#222222" stroke="#222222"></path><path d="M754 281.1L771 181.4L677 210.4Z" fill="#222222" stroke="#222222"></path><path d="M116 276.1L145 382.9L221 296.1Z" fill="#212121" stroke="#212121"></path><path d="M162 387.6L127 440.6L202 482.3Z" fill="#222222" stroke="#222222"></path><path d="M170 154.4L116 276.1L221 296.1Z" fill="#232323" stroke="#232323"></path><path d="M179 0L166 103.7L236 90.7Z" fill="#232323" stroke="#232323"></path><path d="M170 154.4L129 130.4L116 276.1Z" fill="#232323" stroke="#232323"></path><path d="M202 482.3L297 600L234 473.3Z" fill="#232323" stroke="#232323"></path><path d="M762 81.7L605 92.7L635 168.4Z" fill="#212121" stroke="#212121"></path><path d="M771 181.4L762 81.7L635 168.4Z" fill="#222222" stroke="#222222"></path><path d="M82 323.9L127 440.6L145 382.9Z" fill="#202020" stroke="#202020"></path><path d="M145 382.9L127 440.6L162 387.6Z" fill="#242424" stroke="#242424"></path><path d="M202 482.3L150 600L297 600Z" fill="#222222" stroke="#222222"></path><path d="M166 103.7L129 130.4L170 154.4Z" fill="#242424" stroke="#242424"></path><path d="M522 600L658 600L597 501.3Z" fill="#232323" stroke="#232323"></path><path d="M808 525.3L818 392.6L715 441.6Z" fill="#242424" stroke="#242424"></path><path d="M808 525.3L715 441.6L676 534.3Z" fill="#242424" stroke="#242424"></path><path d="M715 441.6L818 392.6L677 344.9Z" fill="#212121" stroke="#212121"></path><path d="M754 281.1L835 229.1L771 181.4Z" fill="#202020" stroke="#202020"></path><path d="M771 181.4L794 113.7L762 81.7Z" fill="#222222" stroke="#222222"></path><path d="M835 229.1L794 113.7L771 181.4Z" fill="#222222" stroke="#222222"></path><path d="M843 340.9L835 229.1L754 281.1Z" fill="#242424" stroke="#242424"></path><path d="M116 276.1L82 323.9L145 382.9Z" fill="#232323" stroke="#232323"></path><path d="M0 292.1L82 323.9L116 276.1Z" fill="#232323" stroke="#232323"></path><path d="M818 392.6L843 340.9L754 281.1Z" fill="#232323" stroke="#232323"></path><path d="M310 0L179 0L236 90.7Z" fill="#222222" stroke="#222222"></path><path d="M166 103.7L78 65.7L129 130.4Z" fill="#232323" stroke="#232323"></path><path d="M752 600L808 525.3L676 534.3Z" fill="#242424" stroke="#242424"></path><path d="M818 392.6L900 355.9L843 340.9Z" fill="#222222" stroke="#222222"></path><path d="M658 600L752 600L676 534.3Z" fill="#222222" stroke="#222222"></path><path d="M794 113.7L788 0L762 81.7Z" fill="#202020" stroke="#202020"></path><path d="M762 81.7L788 0L673 0Z" fill="#222222" stroke="#222222"></path><path d="M900 98.7L788 0L794 113.7Z" fill="#202020" stroke="#202020"></path><path d="M132 600L202 482.3L62 526.3Z" fill="#212121" stroke="#212121"></path><path d="M132 600L150 600L202 482.3Z" fill="#242424" stroke="#242424"></path><path d="M843 340.9L900 251.1L835 229.1Z" fill="#222222" stroke="#222222"></path><path d="M835 229.1L900 153.4L794 113.7Z" fill="#232323" stroke="#232323"></path><path d="M900 355.9L900 251.1L843 340.9Z" fill="#202020" stroke="#202020"></path><path d="M179 0L78 65.7L166 103.7Z" fill="#232323" stroke="#232323"></path><path d="M0 141.4L0 292.1L116 276.1Z" fill="#202020" stroke="#202020"></path><path d="M900 425.6L900 355.9L818 392.6Z" fill="#222222" stroke="#222222"></path><path d="M62 526.3L202 482.3L127 440.6Z" fill="#222222" stroke="#222222"></path><path d="M900 251.1L900 153.4L835 229.1Z" fill="#202020" stroke="#202020"></path><path d="M808 525.3L900 425.6L818 392.6Z" fill="#212121" stroke="#212121"></path><path d="M900 498.3L900 425.6L808 525.3Z" fill="#212121" stroke="#212121"></path><path d="M0 141.4L116 276.1L129 130.4Z" fill="#212121" stroke="#212121"></path><path d="M0 448.6L62 526.3L127 440.6Z" fill="#232323" stroke="#232323"></path><path d="M752 600L802 600L808 525.3Z" fill="#202020" stroke="#202020"></path><path d="M0 381.9L127 440.6L82 323.9Z" fill="#222222" stroke="#222222"></path><path d="M0 292.1L0 381.9L82 323.9Z" fill="#202020" stroke="#202020"></path><path d="M900 153.4L900 98.7L794 113.7Z" fill="#202020" stroke="#202020"></path><path d="M78 65.7L0 141.4L129 130.4Z" fill="#202020" stroke="#202020"></path><path d="M900 600L900 498.3L808 525.3Z" fill="#212121" stroke="#212121"></path><path d="M0 381.9L0 448.6L127 440.6Z" fill="#222222" stroke="#222222"></path><path d="M179 0L64 0L78 65.7Z" fill="#202020" stroke="#202020"></path><path d="M78 65.7L0 84.7L0 141.4Z" fill="#202020" stroke="#202020"></path><path d="M0 0L0 84.7L78 65.7Z" fill="#212121" stroke="#212121"></path><path d="M900 98.7L900 0L788 0Z" fill="#222222" stroke="#222222"></path><path d="M0 448.6L0 545.3L62 526.3Z" fill="#202020" stroke="#202020"></path><path d="M62 526.3L0 600L132 600Z" fill="#242424" stroke="#242424"></path><path d="M802 600L900 600L808 525.3Z" fill="#202020" stroke="#202020"></path><path d="M64 0L0 0L78 65.7Z" fill="#232323" stroke="#232323"></path><path d="M0 545.3L0 600L62 526.3Z" fill="#242424" stroke="#242424"></path></g></svg>